<svg xmlns="http://www.w3.org/2000/svg" width="132.998" height="30.974" viewBox="94.983 25.016 132.998 30.974"><g data-name="Tourism"><path d="M105.993 54.22c0-4.172 7.792-13.99 10.544-17.488l4.235-5.394c-7.284.126-14.483 1.095-21.427 3.245v.084c.593.126 3.387.421 3.387 1.265 0 .599-.78.462-1.81.325-.488-.064-1.033-.128-1.577-.115l-2.456.042c-.974 0-1.906 0-1.906-1.138 0-.674.254-1.727.381-2.444.509-2.74.423-3.581 3.176-4.804 4.828-2.191 10.587-2.782 15.837-2.782 2.118 0 4.32.085 6.395.549 2.625.59 2.414 1.896 3.514 4.804.382 1.01-.973 2.57-1.566 3.497l-9.952 15.002.085.085c.424-.17.974-.043.974.59 0 .842-1.27 2.36-1.779 2.992-.762.968-2.456 3.455-3.768 3.455-1.06 0-2.287-.59-2.287-1.77Zm37.98-1.812c0-1.264.465-2.444.89-3.54l-.085-.084c-1.652 1.432-4.49 5.225-6.819 5.225-2.074 0-3.217-2.36-3.217-4.171 0-.232.01-.464.03-.696-1.55 1.483-3.235 2.128-5.703 2.128-1.778 1.812-3.854 3.161-6.521 3.161-2.203 0-4.235-2.191-4.405-6.026-.085-3.161 1.482-5.268 3.854-7.08 2.287-1.855 5.336-2.992 7.919-3.118.931-.042 2.33.379 2.33 1.517 0 .632-.51.885-.976 1.138 1.271.336 1.525 1.221 1.525 2.486 0 1.854-.847 3.329-1.651 4.972 1.863.338 3.049-1.264 4.362-2.233l.014.06c1.11-2.734 3.221-5.15 5.108-6.381.593-.38 1.143-.464 1.863-.464.593 0 2.752-.379 2.583.885-.085.675-1.228 1.855-1.694 2.234-1.312 1.475-1.567 1.854-3.219 3.034-1.312.927-2.329 1.854-2.329 3.624 0 .21.043.632.34.632.762 0 3.091-1.223 5.081-2.992l4.192-3.75c.89-.801 5.04-4.804 6.099-4.804.338 0 .804.126.973 2.317.085 1.012-1.059 1.98-1.736 2.571-1.355 1.222-4.362 4.55-4.362 6.447 0 .674.382.927 1.06.927.913 0 2.48-.95 3.899-1.957l-.006-.065c1.1-.885 1.99-1.939 2.794-3.076-.889-.085-1.143-.422-1.143-1.307 0-3.034 4.32-6.068 5.335-6.068.424 0 .763.337.763.716 0 .421-.127.8-.296 1.18 3.98-.548 6.31-1.054 6.733-.548.635.801.931 1.475 1.016 2.234 0 1.307-.805 1.939-1.779 2.739-1.227 1.054-3.303 3.118-3.303 4.804 0 .674.678 1.18 1.313 1.18 1.724 0 4.206-2.454 5.652-3.61 1.468-3.863 5.207-7.01 7.22-7.01.72 0 1.863.254 1.863 1.18 0 2.107-4.192 5.858-5.97 7.08-.34 1.728.296 2.655 2.243 2.655.862 0 1.718-.33 2.541-.805a.75.75 0 0 1-.001-.038c0-.548.678-1.138 1.016-1.475l9.19-8.386c.085-1.39.89-2.74 2.413-2.74 1.27 0 1.525.38 1.651 1.56.17 1.601.805 3.034.805 4.888 0 3.456-2.795 6.027-5.504 7.67 2.71.464 4.361-.801 6.436-2.36l2.541-1.938.21.795c.923-3.842 4.637-8.128 6.86-7.832.635.083 1.906.083 1.906.969 0 .842-1.186 2.107-1.694 2.696-.762.886-1.695 1.644-2.33 2.572-.465.631-1.228 1.305-1.228 2.19 0 .085.127.38.297.38.212 0 .72-.548.847-.674 2.075-2.15 9.612-9.65 12.365-9.65 1.143 0 1.736.842 1.736 1.938 0 1.854-3.006 5.267-3.938 6.91l.085.085 9.401-7.374c.423-.338 1.481-1.18 1.99-1.18.338 0 .762 1.01.89 1.18.296.463.761 1.095.761 1.686 0 .716-.846 1.643-1.313 2.148-3.303 3.624-3.557 4.298-3.599 5.268-.042.505.509 1.18 1.016 1.053.89-.21 1.356-.21 6.564-3.75l.255 1.98c-1.991 1.56-8.089 6.532-10.46 6.532-1.27 0-2.16-1.222-2.16-2.444 0-2.107 2.075-5.1 3.134-6.827l-.085-.084-6.733 6.152c-.974.927-2.498 2.655-3.938 2.655-1.016 0-1.82-.758-1.863-1.77-.042-1.221.974-3.16 3.726-7.332.084-.084.254-.422.254-.548a.288.288 0 0 0-.296-.295c-.423 0-1.355 1.012-1.652 1.307-2.202 2.318-4.573 4.846-6.564 7.29-.465.547-1.058 1.18-1.82 1.18-2.033 0-2.626-3.287-2.626-4.804.002-.133.008-.267.018-.402-2.64 2.549-6.963 5.998-10.18 5.838-2.531-.113-5.3-1.4-6.408-3.863-1.97 1.957-4.538 3.905-6.845 3.905-2.498 0-3.641-2.866-3.641-5.015 0-.196.007-.392.022-.587-2.125 2.132-5.78 5.307-7.77 5.307-1.779 0-2.88-1.644-2.88-3.245 0-2.865 2.203-5.1 3.897-7.121l-.085-.085-4.405.97c-.745 1.165-1.565 2.022-2.428 2.816l.06.428c-2.16 2.065-6.649 6.91-9.783 6.91-1.566 0-2.498-1.305-2.498-2.78Zm-20.96-6.531c-.932.927-1.736 2.57-1.736 3.876 0 1.222.804 1.602 1.863 1.602 1.398 0 2.287-.801 3.261-1.686-.297-.675-.508-1.222-.508-1.938 0-2.192 1.99-4.847 1.82-4.932-1.44.844-3.43 1.855-4.7 3.078Zm59.49 1.937c1.567.085 2.498 1.39 3.303 2.487 2.54-1.559 3.218-2.275 3.345-4.72-.127-.885-.296-2.023-.55-3.456l-6.098 5.69Zm-4.234-10.83c0-1.727 2.033-3.244 3.685-3.244.762 0 1.397.547 1.397 1.306 0 1.686-1.566 3.75-3.388 3.75-1.016 0-1.694-.8-1.694-1.811Z" fill-rule="evenodd" fill="url(&quot;#a&quot;)"/><path d="M105.993 54.22c0-4.172 7.792-13.99 10.544-17.488l4.235-5.394c-7.284.126-14.483 1.095-21.427 3.245v.084c.593.126 3.387.421 3.387 1.265 0 .599-.78.462-1.81.325-.488-.064-1.033-.128-1.577-.115l-2.456.042c-.974 0-1.906 0-1.906-1.138 0-.674.254-1.727.381-2.444.509-2.74.423-3.581 3.176-4.804 4.828-2.191 10.587-2.782 15.837-2.782 2.118 0 4.32.085 6.395.549 2.625.59 2.414 1.896 3.514 4.804.382 1.01-.973 2.57-1.566 3.497l-9.952 15.002.085.085c.424-.17.974-.043.974.59 0 .842-1.27 2.36-1.779 2.992-.762.968-2.456 3.455-3.768 3.455-1.06 0-2.287-.59-2.287-1.77Zm37.98-1.812c0-1.264.465-2.444.89-3.54l-.085-.084c-1.652 1.432-4.49 5.225-6.819 5.225-2.074 0-3.217-2.36-3.217-4.171 0-.232.01-.464.03-.696-1.55 1.483-3.235 2.128-5.703 2.128-1.778 1.812-3.854 3.161-6.521 3.161-2.203 0-4.235-2.191-4.405-6.026-.085-3.161 1.482-5.268 3.854-7.08 2.287-1.855 5.336-2.992 7.919-3.118.931-.042 2.33.379 2.33 1.517 0 .632-.51.885-.976 1.138 1.271.336 1.525 1.221 1.525 2.486 0 1.854-.847 3.329-1.651 4.972 1.863.338 3.049-1.264 4.362-2.233l.014.06c1.11-2.734 3.221-5.15 5.108-6.381.593-.38 1.143-.464 1.863-.464.593 0 2.752-.379 2.583.885-.085.675-1.228 1.855-1.694 2.234-1.312 1.475-1.567 1.854-3.219 3.034-1.312.927-2.329 1.854-2.329 3.624 0 .21.043.632.34.632.762 0 3.091-1.223 5.081-2.992l4.192-3.75c.89-.801 5.04-4.804 6.099-4.804.338 0 .804.126.973 2.317.085 1.012-1.059 1.98-1.736 2.571-1.355 1.222-4.362 4.55-4.362 6.447 0 .674.382.927 1.06.927.913 0 2.48-.95 3.899-1.957l-.006-.065c1.1-.885 1.99-1.939 2.794-3.076-.889-.085-1.143-.422-1.143-1.307 0-3.034 4.32-6.068 5.335-6.068.424 0 .763.337.763.716 0 .421-.127.8-.296 1.18 3.98-.548 6.31-1.054 6.733-.548.635.801.931 1.475 1.016 2.234 0 1.307-.805 1.939-1.779 2.739-1.227 1.054-3.303 3.118-3.303 4.804 0 .674.678 1.18 1.313 1.18 1.724 0 4.206-2.454 5.652-3.61 1.468-3.863 5.207-7.01 7.22-7.01.72 0 1.863.254 1.863 1.18 0 2.107-4.192 5.858-5.97 7.08-.34 1.728.296 2.655 2.243 2.655.862 0 1.718-.33 2.541-.805a.75.75 0 0 1-.001-.038c0-.548.678-1.138 1.016-1.475l9.19-8.386c.085-1.39.89-2.74 2.413-2.74 1.27 0 1.525.38 1.651 1.56.17 1.601.805 3.034.805 4.888 0 3.456-2.795 6.027-5.504 7.67 2.71.464 4.361-.801 6.436-2.36l2.541-1.938.21.795c.923-3.842 4.637-8.128 6.86-7.832.635.083 1.906.083 1.906.969 0 .842-1.186 2.107-1.694 2.696-.762.886-1.695 1.644-2.33 2.572-.465.631-1.228 1.305-1.228 2.19 0 .085.127.38.297.38.212 0 .72-.548.847-.674 2.075-2.15 9.612-9.65 12.365-9.65 1.143 0 1.736.842 1.736 1.938 0 1.854-3.006 5.267-3.938 6.91l.085.085 9.401-7.374c.423-.338 1.481-1.18 1.99-1.18.338 0 .762 1.01.89 1.18.296.463.761 1.095.761 1.686 0 .716-.846 1.643-1.313 2.148-3.303 3.624-3.557 4.298-3.599 5.268-.042.505.509 1.18 1.016 1.053.89-.21 1.356-.21 6.564-3.75l.255 1.98c-1.991 1.56-8.089 6.532-10.46 6.532-1.27 0-2.16-1.222-2.16-2.444 0-2.107 2.075-5.1 3.134-6.827l-.085-.084-6.733 6.152c-.974.927-2.498 2.655-3.938 2.655-1.016 0-1.82-.758-1.863-1.77-.042-1.221.974-3.16 3.726-7.332.084-.084.254-.422.254-.548a.288.288 0 0 0-.296-.295c-.423 0-1.355 1.012-1.652 1.307-2.202 2.318-4.573 4.846-6.564 7.29-.465.547-1.058 1.18-1.82 1.18-2.033 0-2.626-3.287-2.626-4.804.002-.133.008-.267.018-.402-2.64 2.549-6.963 5.998-10.18 5.838-2.531-.113-5.3-1.4-6.408-3.863-1.97 1.957-4.538 3.905-6.845 3.905-2.498 0-3.641-2.866-3.641-5.015 0-.196.007-.392.022-.587-2.125 2.132-5.78 5.307-7.77 5.307-1.779 0-2.88-1.644-2.88-3.245 0-2.865 2.203-5.1 3.897-7.121l-.085-.085-4.405.97c-.745 1.165-1.565 2.022-2.428 2.816l.06.428c-2.16 2.065-6.649 6.91-9.783 6.91-1.566 0-2.498-1.305-2.498-2.78Zm-20.96-6.531c-.932.927-1.736 2.57-1.736 3.876 0 1.222.804 1.602 1.863 1.602 1.398 0 2.287-.801 3.261-1.686-.297-.675-.508-1.222-.508-1.938 0-2.192 1.99-4.847 1.82-4.932-1.44.844-3.43 1.855-4.7 3.078Zm59.49 1.937c1.567.085 2.498 1.39 3.303 2.487 2.54-1.559 3.218-2.275 3.345-4.72-.127-.885-.296-2.023-.55-3.456l-6.098 5.69Zm-4.234-10.83c0-1.727 2.033-3.244 3.685-3.244.762 0 1.397.547 1.397 1.306 0 1.686-1.566 3.75-3.388 3.75-1.016 0-1.694-.8-1.694-1.811Z" stroke-linejoin="round" stroke-linecap="round" stroke-width="4" stroke="#636363" fill="transparent" transform="matrix(.96992 0 0 .87086 4.857 5.23)"/></g><defs><linearGradient x1=".521" y1="1.55" x2=".479" y2="-.55" id="a"><stop stop-color="#08aeea" offset="0"/><stop stop-color="#2af598" offset="1"/></linearGradient></defs></svg>